<svg id="Layer_1" data-name="Layer 1" xmlns="http://www.w3.org/2000/svg" viewBox="0 0 252.28 144.57">
  <defs>
    <style>
      .cls-1 {
        fill: transparent;
      }

      .cls-2 {
        fill: rgb(58,31,0);
      }

      .cls-3 {
        fill: transparent;
      }
    </style>
  </defs>
  <title>menuqr</title>
  <rect class="cls-1" width="252.28" height="144.57" />
  <path class="cls-2"
    d="M155.67,45.22h0l-1-2.86h0a.93.93,0,0,1,0-.67c.08-.14.32-.24.73-.31a1.8,1.8,0,0,0,.78-.24.47.47,0,0,0,.2-.4.42.42,0,0,0-.19-.36,1.13,1.13,0,0,0-.63-.13h-5.65a1.12,1.12,0,0,0-.61.13.43.43,0,0,0-.21.38.44.44,0,0,0,.23.38,2.16,2.16,0,0,0,.8.26q.72.12.86.38a1.06,1.06,0,0,1-.06.82h0L150,45.22h0l-6,17.67a5.78,5.78,0,0,1-.59,1.38,1.68,1.68,0,0,1-.82.58l-.92.27a1.84,1.84,0,0,0-.55.27.38.38,0,0,0-.14.31.46.46,0,0,0,.19.39,1.09,1.09,0,0,0,.63.14H148a1,1,0,0,0,.63-.15.47.47,0,0,0,.2-.38.44.44,0,0,0-.16-.37,1.49,1.49,0,0,0-.55-.2l-1.64-.25a1.76,1.76,0,0,1-.82-.37.87.87,0,0,1-.26-.67,3.79,3.79,0,0,1,.2-1.08l2-5.93a.62.62,0,0,1,.58-.42h7.46a.62.62,0,0,1,.58.42l2.29,6.69a2.59,2.59,0,0,1,.18,1c0,.2-.22.33-.57.39l-1.7.2a1.12,1.12,0,0,0-.55.2.47.47,0,0,0-.17.37.46.46,0,0,0,.21.38,1,1,0,0,0,.62.15h7.25a1,1,0,0,0,.61-.15.46.46,0,0,0,.21-.38.49.49,0,0,0-.16-.39,1.64,1.64,0,0,0-.7-.24,2.5,2.5,0,0,1-1.18-.48,2.19,2.19,0,0,1-.63-1Zm-.86,9.86h-5.71a.62.62,0,0,1-.58-.82l3.07-9h0l.35-1h0l.36,1h0l3.1,9a.62.62,0,0,1-.58.82"
    transform="translate(0 0)" />
  <path class="cls-2"
    d="M125.46,36.11a1.91,1.91,0,0,0,1.91-1.79,6.29,6.29,0,0,1,.45-2.22l.05-.11.15-.25a2.59,2.59,0,0,1,.36-.44l.11-.11a3.16,3.16,0,0,1,.44-.33l.13-.1.06,0,.09-.06a7.71,7.71,0,0,1,4.42-.48,20.38,20.38,0,0,1,3.3.83q1.9.63,4.05,1.43l.58.22-.22.82-1.28,4.71c-.47,1.72-2.8,10.17-3.31,12s-1,3.73-1.53,5.59-1,3.63-1.45,5.31-.87,3.18-1.25,4.51l-.91,3.2a2.35,2.35,0,0,1-.69,1.19,2.52,2.52,0,0,1-1.19.51l-2,.34a2.81,2.81,0,0,0-.86.29.73.73,0,0,0-.36.55.63.63,0,0,0,.25.5,1.2,1.2,0,0,0,.77.21H137.9a2.2,2.2,0,0,0,1-.17.76.76,0,0,0,.43-.56c.09-.35-.17-.59-.76-.73l-2.16-.36a1.35,1.35,0,0,1-.86-.43,1.07,1.07,0,0,1-.08-1l.81-3q.52-1.92,1.19-4.39l1.41-5.24q.74-2.76,1.51-5.58c.51-1.88,2.85-10.34,3.32-12.07s1-3.5,1.36-5c1.29.46,2.54.87,3.75,1.24a24.71,24.71,0,0,0,3.46.81,12.91,12.91,0,0,0,5-.1,6.8,6.8,0,0,0,3.33-1.8,6,6,0,0,0,1.57-3.16,5.3,5.3,0,0,0,.13-1.31h-3.93a4.47,4.47,0,0,1-.7,3.46l-.19.23-.23.23a3.15,3.15,0,0,1-.39.29l-.13.09-.06,0-.14.09a7.71,7.71,0,0,1-4.42.48,20.41,20.41,0,0,1-3.3-.83l-1.31-.45-2.06-.73-.68-.25-1.6-.6h0L142,31.21l-.9-.33-.09,0q-2.08-.75-4-1.33a24.66,24.66,0,0,0-3.46-.81,12.9,12.9,0,0,0-5,.1,6.8,6.8,0,0,0-3.33,1.8,6,6,0,0,0-1.57,3.16c0,.06,0,.12,0,.2a1.91,1.91,0,0,0,1.91,2.14"
    transform="translate(0 0)" />
  <path class="cls-2"
    d="M66,71.74a10.74,10.74,0,0,0,6.18,1.77h.25A10.52,10.52,0,0,0,76,72.86a8.92,8.92,0,0,0,2.84-1.69,7.74,7.74,0,0,0,1.77-2.26,5.32,5.32,0,0,0,.61-2.39.45.45,0,0,0-.09-.29.34.34,0,0,0-.22-.12.42.42,0,0,0-.33.09,1,1,0,0,0-.26.4,8,8,0,0,1-2.8,3.72,7,7,0,0,1-4.42,1.35h-.06A7.37,7.37,0,0,1,69,70.16a10.09,10.09,0,0,1-3.16-4.35A18,18,0,0,1,64.66,59a18.67,18.67,0,0,1,.59-4.88,12.59,12.59,0,0,1,1.67-3.79,8,8,0,0,1,2.51-2.45,5.93,5.93,0,0,1,1.25-.56,6.06,6.06,0,0,1,3.21-.06,7.17,7.17,0,0,1,1.26.42,7.37,7.37,0,0,1,2.66,2.06A15.38,15.38,0,0,1,80,53.36a.9.9,0,0,0,.3.39.63.63,0,0,0,.42.1.53.53,0,0,0,.42-.26.66.66,0,0,0,0-.55L79.3,46.73a1,1,0,0,0-.22-.45.45.45,0,0,0-.33-.13.5.5,0,0,0-.51.36l-.26.73a.5.5,0,0,1-.51.37,2,2,0,0,1-.93-.44,8.49,8.49,0,0,0-1.8-.88,8.7,8.7,0,0,0-3-.43,9.76,9.76,0,0,0-4.46,1,10.58,10.58,0,0,0-3.54,2.92,14,14,0,0,0-2.32,4.43,18,18,0,0,0-.82,5.58A16.94,16.94,0,0,0,62,66.89a11.45,11.45,0,0,0,4,4.85"
    transform="translate(0 0)" />
  <path class="cls-2"
    d="M203.62,84.91a18,18,0,0,0-3-5.72,13.55,13.55,0,0,0-4.54-3.77,12.62,12.62,0,0,0-5.84-1.34,13,13,0,0,0-5.76,1.28A13.24,13.24,0,0,0,180,79a17.13,17.13,0,0,0-2.94,5.59,23.24,23.24,0,0,0-1,7.12,23.87,23.87,0,0,0,1,7.22,18.12,18.12,0,0,0,2.95,5.74,13.54,13.54,0,0,0,4.52,3.77,12.44,12.44,0,0,0,5.74,1.34,13,13,0,0,0,10.4-4.92,17.08,17.08,0,0,0,2.95-5.6,23.36,23.36,0,0,0,1-7.14,23.73,23.73,0,0,0-1-7.21m-4.16,16.64a11.06,11.06,0,0,1-3.36,4.85,8.08,8.08,0,0,1-8.6.84,10,10,0,0,1-3.06-2.5,15.76,15.76,0,0,1-2.36-3.9,24,24,0,0,1-1.52-5.07,31.89,31.89,0,0,1-.54-6,20.78,20.78,0,0,1,1.2-7.44,11,11,0,0,1,3.33-4.83,7.72,7.72,0,0,1,4.94-1.69,7.9,7.9,0,0,1,3.63.86,10.09,10.09,0,0,1,3.08,2.5,15.88,15.88,0,0,1,2.38,3.87,23.46,23.46,0,0,1,1.54,5,31.13,31.13,0,0,1,.55,6,20.8,20.8,0,0,1-1.21,7.48"
    transform="translate(0 0)" />
  <path class="cls-2"
    d="M69.43,98.35a.42.42,0,0,0-.33.09,1,1,0,0,0-.26.4,8,8,0,0,1-2.8,3.72,7,7,0,0,1-4.42,1.35h-.06a7.37,7.37,0,0,1-4.07-1.5,10.09,10.09,0,0,1-3.16-4.35,18,18,0,0,1-1.17-6.82,18.67,18.67,0,0,1,.59-4.88,12.58,12.58,0,0,1,1.67-3.78A8,8,0,0,1,58,80.13a5.93,5.93,0,0,1,1.25-.56,6.06,6.06,0,0,1,3.21-.06,7.17,7.17,0,0,1,1.26.42A7.37,7.37,0,0,1,66.33,82a15.37,15.37,0,0,1,2.18,3.63.9.9,0,0,0,.3.39.63.63,0,0,0,.42.1.53.53,0,0,0,.42-.26.66.66,0,0,0,0-.55L67.82,79a1,1,0,0,0-.22-.45.45.45,0,0,0-.33-.13.49.49,0,0,0-.51.36l-.26.73a.5.5,0,0,1-.51.37,2,2,0,0,1-.93-.44,8.48,8.48,0,0,0-1.8-.88,8.7,8.7,0,0,0-3-.43,9.76,9.76,0,0,0-4.46,1A10.57,10.57,0,0,0,52.26,82a13.94,13.94,0,0,0-2.32,4.43A18,18,0,0,0,49.11,92a16.93,16.93,0,0,0,1.41,7.09,11.45,11.45,0,0,0,4,4.85,10.74,10.74,0,0,0,6.18,1.77H61a10.51,10.51,0,0,0,3.58-.64,8.92,8.92,0,0,0,2.84-1.69,7.75,7.75,0,0,0,1.77-2.26,5.32,5.32,0,0,0,.61-2.39.45.45,0,0,0-.09-.29.34.34,0,0,0-.22-.12"
    transform="translate(0 0)" />
  <path class="cls-2"
    d="M172.12,79.27a1.07,1.07,0,0,1,.64-.44l1.34-.31a.83.83,0,0,0,.45-1.28.62.62,0,0,0-.51-.18H167a.65.65,0,0,0-.52.18.72.72,0,0,0-.16.49.76.76,0,0,0,.61.78l1.34.31a1.07,1.07,0,0,1,.64.44,1.5,1.5,0,0,1,.23.86v6.79a.79.79,0,0,1-.79.79h-6.8a.79.79,0,0,1-.79-.79V80.13a1.49,1.49,0,0,1,.23-.86,1.07,1.07,0,0,1,.64-.44l1.34-.31a.76.76,0,0,0,.61-.78.72.72,0,0,0-.16-.49.65.65,0,0,0-.52-.18h-7.09a.63.63,0,0,0-.5.18.72.72,0,0,0-.16.49.76.76,0,0,0,.61.78l1.34.31a1.07,1.07,0,0,1,.64.44,1.5,1.5,0,0,1,.23.86V100a1.49,1.49,0,0,1-.23.86,1.07,1.07,0,0,1-.64.44l-1.34.31a.76.76,0,0,0-.61.78.73.73,0,0,0,.16.48.61.61,0,0,0,.5.2h7.09a.63.63,0,0,0,.52-.2.73.73,0,0,0,.16-.48.75.75,0,0,0-.21-.54.9.9,0,0,0-.4-.24l-1.34-.31a1.07,1.07,0,0,1-.64-.44,1.49,1.49,0,0,1-.23-.86V90.19a.79.79,0,0,1,.79-.79h6.8a.79.79,0,0,1,.79.79V100a1.49,1.49,0,0,1-.23.86,1.07,1.07,0,0,1-.64.44l-1.34.31a.76.76,0,0,0-.61.78.73.73,0,0,0,.16.48.63.63,0,0,0,.52.2H174a.6.6,0,0,0,.51-.2.82.82,0,0,0-.45-1.26l-1.34-.31a1.07,1.07,0,0,1-.64-.44,1.49,1.49,0,0,1-.23-.86V80.13a1.5,1.5,0,0,1,.23-.86"
    transform="translate(0 0)" />
  <path class="cls-2"
    d="M132.69,103.29a2.64,2.64,0,0,0,1.79.43,3.55,3.55,0,0,0,1.37-.67,7.15,7.15,0,0,0,1.72-2,11.68,11.68,0,0,0,1.22-2.75,11.21,11.21,0,0,0,.49-3.12c0-.57-.2-.86-.61-.86s-.6.23-.79.7a16.67,16.67,0,0,1-1.8,3.87,6.25,6.25,0,0,1-2.23,2.13,6,6,0,0,1-2.83.65h-3.89a2.68,2.68,0,0,1-1.26-.25,1.16,1.16,0,0,1-.6-.74,2.6,2.6,0,0,1,0-1.23q.16-.91.52-2.69c.24-1.18.54-2.55.88-4.09.28-1.25.59-2.6.91-4l.66-.59h4.21a2.51,2.51,0,0,1,1.83.62,5.93,5.93,0,0,1,1.15,2.5,1.32,1.32,0,0,0,.35.52.82.82,0,0,0,.55.18.7.7,0,0,0,.52-.3,1.12,1.12,0,0,0,.11-.84l-1.27-7.49a.85.85,0,0,0-.23-.55.77.77,0,0,0-.57-.21.58.58,0,0,0-.42.17.84.84,0,0,0-.21.48,5.11,5.11,0,0,1-.48,2.84,1.79,1.79,0,0,1-1.56.73H129a.77.77,0,0,1-.66-1l.81-3.44q.45-1.92.8-3.42a.7.7,0,0,1,.66-.58h4.5a3.22,3.22,0,0,1,1.66.43,4.05,4.05,0,0,1,1.38,1.57,17.27,17.27,0,0,1,1.3,3.34,2.59,2.59,0,0,0,.52.86.86.86,0,0,0,.68.23.67.67,0,0,0,.53-.33,1.2,1.2,0,0,0,.08-.87l-1.06-6.46c-.13-.68-.45-1-1-1a2.07,2.07,0,0,0-1.19.47,2.7,2.7,0,0,1-1.62.47H124.29a1.13,1.13,0,0,0-.71.21.7.7,0,0,0-.26.57.62.62,0,0,0,.19.47,1.15,1.15,0,0,0,.55.26l1.52.31a.83.83,0,0,1,.63.6,2.43,2.43,0,0,1,0,1.28q-.2,1.2-.62,3.12c-.26,1.2-.57,2.55-.92,4q-.62,2.55-1.16,4.82t-.94,4q-.4,1.74-.55,2.69a2.75,2.75,0,0,1-.72,1.23,2.17,2.17,0,0,1-1.12.52l-1.72.34a1.19,1.19,0,0,0-.59.3.74.74,0,0,0,0,1,.86.86,0,0,0,.65.21h13.26a2,2,0,0,1,1,.21"
    transform="translate(0 0)" />
  <path class="cls-2"
    d="M168.33,108.48h0a1.92,1.92,0,0,0-1.91,1.81,5.7,5.7,0,0,1-.69,2.59,2.6,2.6,0,0,1-.3.38l-.12.12a3.16,3.16,0,0,1-.5.37l-.07.05h0l-.15.09a7.71,7.71,0,0,1-4.42.48,20.38,20.38,0,0,1-3.3-.83q-1.9-.63-4.05-1.43l-1.6-.6h0l-2.15-.78-.75-.26-1-.35-.82-.27v0a2.6,2.6,0,0,1-1.9-2.45s0-.06,0-.09a3.4,3.4,0,0,1,.07-.75q.21-1.1.65-2.92t1-4.1q.59-2.27,1.28-4.8c.46-1.69,2.26-8.32,2.73-10s.92-3.32,1.34-4.88l1.16-4.25q.52-1.92.83-3.17a3.49,3.49,0,0,1,.7-1.3,1.89,1.89,0,0,1,1.17-.55l2.06-.36a2.48,2.48,0,0,0,.79-.31.63.63,0,0,0,.33-.55.58.58,0,0,0-.26-.5,1.39,1.39,0,0,0-.78-.18H147.29a1.89,1.89,0,0,0-.9.18.6.6,0,0,0-.07,1,2.19,2.19,0,0,0,.73.27l1.93.42a1,1,0,0,1,.69.45,1.19,1.19,0,0,1,.09.93c-.14.79-.35,1.78-.64,3s-.62,2.58-1,4.09-.79,3.1-1.22,4.75-2.21,8.26-2.66,9.93l-1.3,4.83q-.63,2.3-1.14,4.24T141,106a4,4,0,0,1-.86,1.58,2.55,2.55,0,0,1-1.43.69l-1.59.28-.3.07-.23,0a6.8,6.8,0,0,0-3.33,1.8,6,6,0,0,0-1.57,3.16,5.27,5.27,0,0,0-.13,1.31h3.91a4.42,4.42,0,0,1,.76-3.51l.11-.14a3.05,3.05,0,0,1,.27-.26,3.15,3.15,0,0,1,.41-.3l.09-.06,0,0,.19-.12.14-.06a5.61,5.61,0,0,1,1.19-.37,9,9,0,0,1,3.09,0l.26,0a21.14,21.14,0,0,1,3,.78c1,.32,2,.68,3,1.06l1,.37,1.6.6h0l2.15.78q2.08.75,4,1.33a24.68,24.68,0,0,0,3.46.81,12.91,12.91,0,0,0,5-.1,6.8,6.8,0,0,0,3.33-1.8,6,6,0,0,0,1.57-3.16c0-.05,0-.12,0-.19a1.9,1.9,0,0,0-1.9-2.12"
    transform="translate(0 0)" />
  <path class="cls-2"
    d="M116.16,84a16.52,16.52,0,0,0-4.66-5.54,21.09,21.09,0,0,0-5.19-2.92h0a.47.47,0,0,1,.18-.91h.43a25.6,25.6,0,0,0,9.1-1.56,21.23,21.23,0,0,0,7.16-4.4A19.91,19.91,0,0,0,127.87,62a21.13,21.13,0,0,0,1.65-8.43,20.58,20.58,0,0,0-1.64-8.31,19,19,0,0,0-4.66-6.52,21.07,21.07,0,0,0-7.16-4.25A26.81,26.81,0,0,0,106.93,33a26.1,26.1,0,0,0-9.25,1.56,21.36,21.36,0,0,0-7.2,4.4,19.87,19.87,0,0,0-4.69,6.68A21,21,0,0,0,84.14,54a20.69,20.69,0,0,0,1.64,8.33,18.9,18.9,0,0,0,4.67,6.53,20.71,20.71,0,0,0,6.06,3.79h0a.47.47,0,0,1-.18.91h0l-1.12,0A30.3,30.3,0,0,0,86,74.91a22.29,22.29,0,0,0-7.2,3.74,17.17,17.17,0,0,0-4.69,5.67,15.56,15.56,0,0,0-1.65,7.14,15.31,15.31,0,0,0,1.64,7.07,16.41,16.41,0,0,0,4.67,5.55A22.19,22.19,0,0,0,86,107.7,31.88,31.88,0,0,0,95.21,109a29.71,29.71,0,0,0,9.1-1.33,22.14,22.14,0,0,0,7.16-3.74,17.2,17.2,0,0,0,4.67-5.68,15.64,15.64,0,0,0,1.65-7.16A15.24,15.24,0,0,0,116.16,84M90.43,65.1a17,17,0,0,1-2.18-8.78,24.33,24.33,0,0,1,1-7A21.27,21.27,0,0,1,92,43.41a19.63,19.63,0,0,1,4.28-4.55,18.78,18.78,0,0,1,5.54-2.93,20.56,20.56,0,0,1,6.53-1,19.08,19.08,0,0,1,8.9,2,14.57,14.57,0,0,1,6,5.66,16.93,16.93,0,0,1,2.16,8.73,24.86,24.86,0,0,1-1,7,21.61,21.61,0,0,1-2.74,5.95,19.22,19.22,0,0,1-4.25,4.57A18.56,18.56,0,0,1,112,71.78a20.4,20.4,0,0,1-6.51,1,19.25,19.25,0,0,1-9-2,14.68,14.68,0,0,1-6.05-5.69M112.72,95a16.79,16.79,0,0,1-2.74,5,17.62,17.62,0,0,1-4.25,3.81,20,20,0,0,1-5.51,2.44,24.17,24.17,0,0,1-6.51.85,22.5,22.5,0,0,1-9-1.67,14,14,0,0,1-6.05-4.74,12.32,12.32,0,0,1-2.18-7.31,17.14,17.14,0,0,1,1-5.85,16.59,16.59,0,0,1,2.77-4.92,18.07,18.07,0,0,1,4.28-3.79,20.3,20.3,0,0,1,5.54-2.44,24.36,24.36,0,0,1,6.53-.85,22.29,22.29,0,0,1,8.89,1.66,13.82,13.82,0,0,1,6,4.72,12.29,12.29,0,0,1,2.16,7.28,17.51,17.51,0,0,1-1,5.86"
    transform="translate(0 0)" />
  <path class="cls-3" d="M137.36,126.83h0Z" transform="translate(0 0)" />
  <path class="cls-3" d="M138.4,125.53h0s0,0,0,0" transform="translate(0 0)" />
  <polygon class="cls-3" points="138.6 125.21 138.6 125.21 138.6 125.21 138.6 125.21" />
  <path class="cls-3" d="M137.28,126.47h0s0,0,0,0,0,0,0,0" transform="translate(0 0)" />
  <path class="cls-3" d="M137.33,126.72h0v0Z" transform="translate(0 0)" />
  <path class="cls-3" d="M141.92,114.32c-.13.11-.11.1,0,0l0,0" transform="translate(0 0)" />
  <path class="cls-3" d="M136.34,125.66l0,0,0,0" transform="translate(0 0)" />
  <polyline class="cls-3" points="136.66 125.31 136.67 125.31 136.67 125.31 136.66 125.31" />
  <path class="cls-3" d="M143.4,113.57v0" transform="translate(0 0)" />
  <polyline class="cls-3" points="143.66 124.53 143.66 124.53 143.66 124.53 143.66 124.53" />
  <path class="cls-3" d="M148.72,123.65h0s0,0,0,0" transform="translate(0 0)" />
  <polygon class="cls-3" points="148.37 124.14 148.37 124.14 148.37 124.14 148.37 124.14" />
  <path class="cls-3" d="M152.8,113.3v0s0,0,0,0,0,0,0,0h0" transform="translate(0 0)" />
  <path class="cls-3" d="M151.58,114.39c.05-.07,0-.06,0,0s0,0,0,0" transform="translate(0 0)" />
  <polyline class="cls-3" points="152.73 112.95 152.72 112.95 152.72 112.95 152.73 112.95" />
  <path class="cls-3" d="M153.56,123.36s0,0,0,0h0" transform="translate(0 0)" />
  <polygon class="cls-3" points="153.08 123.92 153.08 123.92 153.08 123.92 153.08 123.92" />
  <path class="cls-3" d="M158.31,112.93v0s0-.05,0-.05,0,0,0,0h0" transform="translate(0 0)" />
  <path class="cls-3" d="M158.58,112.5h0l0,0Z" transform="translate(0 0)" />
  <path class="cls-3" d="M155.38,124h0s0,0,0,0" transform="translate(0 0)" />
  <polygon class="cls-3" points="155.1 124.28 155.1 124.28 155.1 124.28 155.1 124.28" />
  <path class="cls-3" d="M159.17,114.67h0v0s0,0,0,0v0" transform="translate(0 0)" />
</svg>